<svg width="1024" height="1024" viewBox="0 0 1024 1024" fill="none" xmlns="http://www.w3.org/2000/svg">
  <rect width="1024" height="1024" rx="228" fill="#FFF9F4"/>
  <path d="M511 197C448 129 382 125 323 171C370 226 434 249 511 217C517 214 517 203 511 197Z" fill="#75B84D"/>
  <path d="M507 197C574 127 658 121 735 177C670 248 595 264 507 218C500 214 501 203 507 197Z" fill="#86C85C"/>
  <circle cx="512" cy="571" r="312" fill="#F2B06F"/>
  <circle cx="512" cy="571" r="312" stroke="#925C34" stroke-width="26"/>
  <ellipse cx="391" cy="538" rx="27" ry="38" fill="#27120F"/>
  <ellipse cx="634" cy="538" rx="27" ry="38" fill="#27120F"/>
  <rect x="273" y="610" width="114" height="66" rx="33" fill="#F48678"/>
  <rect x="638" y="610" width="114" height="66" rx="33" fill="#F48678"/>
  <path d="M464 626C477 648 547 648 560 626" stroke="#27120F" stroke-width="14" stroke-linecap="round"/>
</svg>
